<svg width="240" height="240" viewBox="0 0 24 24" preserveAspectRatio="none" xmlns="http://www.w3.org/2000/svg" shape-rendering="crispEdges">
    <animate attributeName="fill" dur="500ms" repeatCount="indefinite" keyTimes="0;0.1;0.2;0.3;0.4;0.5;0.6;0.7;0.8;0.9;1" values="#ff8d8b;#fed689;#88ff89;#87ffff;#8bb5fe;#d78cff;#ff8cff;#ff68f7;#fe6cb7;#ff6968;#ff8d8b" />
    <path fill="black" d="M8 4h6v4h2V6h8v1h-7v1h3v5h2v-2h1v-1h1v2h-1v1h1v1h-4v1h-5v4h1v-1h8v4h-1v-3h-7v1h-2v-1H1v-1h13v-3H8V8h5V5H8zm2 5H9v5h10V9zm1 1h1v2h-1zm4 0h1v2h-1v-2" />
    <path d="M9 9h10v5H9zm3 1h-1v2h1zm4 0h-1v2h1zm4 4h4v4h-8v1h-1v-4h5v-1" />
</svg>